<svg width="17" height="15" viewBox="0 0 17 15" fill="none" xmlns="http://www.w3.org/2000/svg">
<path d="M15.0388 2.44951H9.53738C9.53112 2.44951 9.52173 2.44637 9.5186 2.44011L8.95186 1.28786C8.79218 0.962226 8.45402 0.752441 8.09081 0.752441H4.76556C4.2364 0.752441 3.80431 1.18454 3.80431 1.71369V2.65616H2.86184C2.33268 2.65616 1.90059 3.08825 1.90059 3.61741V4.55988H0.961253C0.432094 4.55675 0 4.98571 0 5.518V13.2894C0 13.8186 0.432094 14.2475 0.961253 14.2475H11.2376C11.7667 14.2475 12.1988 13.8155 12.1988 13.2863V12.3438H13.1413C13.6705 12.3438 14.1026 11.9117 14.1026 11.3826V10.4401H15.045C15.5742 10.4401 16.0063 10.008 16.0063 9.47886V3.4045C16 2.8816 15.5679 2.44951 15.0388 2.44951ZM11.2344 13.3082H0.961253C0.95186 13.3082 0.942466 13.2988 0.942466 13.2894V5.518C0.942466 5.50861 0.95186 5.49921 0.961253 5.49921H4.2865C4.28963 5.49921 4.29276 5.49921 4.29589 5.50234L4.29902 5.50547C4.30216 5.50861 4.30216 5.50861 4.30216 5.51174L4.86889 6.66399C5.03171 6.99275 5.36047 7.19941 5.72994 7.19941H11.2313C11.2344 7.19941 11.2376 7.19941 11.2376 7.19941C11.2438 7.20254 11.2501 7.2088 11.2501 7.21819C11.2501 10.5372 11.2501 13.2612 11.2501 13.2926C11.2564 13.2988 11.247 13.3082 11.2344 13.3082ZM13.157 11.3857C13.157 11.3951 13.1476 11.4045 13.1382 11.4045H12.1957V7.21506C12.1957 6.6859 11.7636 6.25381 11.2344 6.25381H5.73308C5.72681 6.25381 5.72055 6.25068 5.71742 6.24442L5.15069 5.09217C4.98787 4.7634 4.6591 4.55675 4.28963 4.55675H2.84305V3.61428C2.84305 3.60489 2.85245 3.59549 2.86184 3.59549H6.18709C6.19335 3.59549 6.19961 3.59863 6.20274 3.60489L6.76948 4.75714C6.93229 5.08591 7.26106 5.29256 7.63053 5.29256H13.1319C13.1413 5.29256 13.1507 5.30195 13.1507 5.31135V11.3857H13.157ZM15.0575 9.48512C15.0575 9.49452 15.0481 9.50391 15.0388 9.50391H14.0963V5.31135C14.0963 4.78219 13.6642 4.35009 13.135 4.35009H7.63366C7.6274 4.35009 7.62114 4.34696 7.61801 4.3407L7.05128 3.18845C6.88846 2.85655 6.55969 2.65303 6.19022 2.65303H4.74677V1.71369C4.74677 1.7043 4.75617 1.69491 4.76556 1.69491H8.09081C8.09707 1.69491 8.10333 1.69804 8.10646 1.7043L8.67319 2.85655C8.83601 3.18532 9.16478 3.39197 9.53425 3.39197H15.0356C15.045 3.39197 15.0544 3.40137 15.0544 3.41076L15.0575 9.48512Z" fill="#636365"/>
</svg>
