<svg width="16" height="16" viewBox="0 0 16 16" fill="none" xmlns="http://www.w3.org/2000/svg">
<path d="M1.79062 7.11531C1.54688 6.87156 1.54688 6.47468 1.79062 6.23093L5.45 2.57156C5.69375 2.32781 6.09062 2.32781 6.33437 2.57156L8.63437 4.87156L12.2594 1.24656H10.6531C10.3094 1.24656 10.0281 0.965309 10.0281 0.621559C10.0281 0.277809 10.3094 -0.00344086 10.6531 -0.00344086H13.7656C14.1156 -0.00344086 14.3906 0.284059 14.3906 0.621559V3.73718C14.3906 4.08093 14.1094 4.36218 13.7656 4.36218C13.4219 4.36218 13.1406 4.08093 13.1406 3.73718V2.13406L9.07812 6.19968C8.83438 6.44343 8.4375 6.44343 8.19375 6.19968L5.89375 3.89968L2.675 7.11843C2.43125 7.35906 2.03437 7.35906 1.79062 7.11531ZM4.46562 11.6872V15.3747C4.46562 15.7184 4.18437 15.9997 3.84063 15.9997H0.625C0.28125 15.9997 0 15.7184 0 15.3747V11.6872C0 11.3434 0.28125 11.0622 0.625 11.0622H3.84063C4.18437 11.0622 4.46562 11.3434 4.46562 11.6872ZM3.21563 12.3122H1.25V14.7497H3.21563V12.3122ZM10.2312 9.30906V15.3747C10.2312 15.7184 9.95 15.9997 9.60625 15.9997H6.39375C6.05 15.9997 5.76875 15.7184 5.76875 15.3747V9.30906C5.76875 8.96531 6.05 8.68406 6.39375 8.68406H9.60938C9.95312 8.68406 10.2312 8.96531 10.2312 9.30906ZM8.98125 9.93406H7.01562V14.7497H8.98125V9.93406ZM16 6.93406V15.3747C16 15.7184 15.7188 15.9997 15.375 15.9997H12.1594C11.8156 15.9997 11.5344 15.7184 11.5344 15.3747V6.93406C11.5344 6.59031 11.8156 6.30906 12.1594 6.30906H15.375C15.7188 6.30906 16 6.58718 16 6.93406ZM14.75 7.55906H12.7844V14.7497H14.75V7.55906Z" fill="#636365"/>
</svg>
