<svg width="16" height="14" viewBox="0 0 16 14" fill="none" xmlns="http://www.w3.org/2000/svg">
<g clip-path="url(#clip0)">
<path d="M13.6562 7.37967H12.0906C11.8781 7.37967 11.6719 7.40779 11.475 7.46092C11.0875 6.69842 10.2969 6.17654 9.38437 6.17654H6.61562C5.70312 6.17654 4.9125 6.69842 4.525 7.46092C4.32812 7.40779 4.12187 7.37967 3.90937 7.37967H2.34375C1.05 7.37967 0 8.42967 0 9.72342V12.2265C0 13.0015 0.63125 13.6328 1.40625 13.6328H14.5938C15.3687 13.6328 16 13.0015 16 12.2265V9.72342C16 8.43279 14.95 7.37967 13.6562 7.37967ZM4.27187 8.52342V12.6984H1.40625C1.14688 12.6984 0.9375 12.489 0.9375 12.2297V9.72654C0.9375 8.95154 1.56875 8.32029 2.34375 8.32029H3.90937C4.0375 8.32029 4.15937 8.33904 4.27812 8.37029C4.275 8.41717 4.27187 8.47029 4.27187 8.52342ZM10.7906 12.6953H5.20937V8.52342C5.20937 7.74842 5.84062 7.11717 6.61562 7.11717H9.38437C10.1594 7.11717 10.7906 7.74842 10.7906 8.52342V12.6953ZM15.0625 12.2265C15.0625 12.4859 14.8531 12.6953 14.5938 12.6953H11.7281V8.52342C11.7281 8.47029 11.725 8.42029 11.7219 8.36717C11.8406 8.33592 11.9625 8.31717 12.0906 8.31717H13.6562C14.4312 8.31717 15.0625 8.94842 15.0625 9.72342V12.2265Z" fill="#636365"/>
<path d="M3.12812 2.95471C1.98125 2.95471 1.04688 3.88909 1.04688 5.03596C1.04688 6.18284 1.98125 7.11721 3.12812 7.11721C4.275 7.11721 5.20937 6.18284 5.20937 5.03596C5.20937 3.88909 4.275 2.95471 3.12812 2.95471ZM3.12812 6.18284C2.49687 6.18284 1.98438 5.67034 1.98438 5.03909C1.98438 4.40784 2.49687 3.89534 3.12812 3.89534C3.75938 3.89534 4.27187 4.40784 4.27187 5.03909C4.27187 5.67034 3.75938 6.18284 3.12812 6.18284Z" fill="#636365"/>
<path d="M8 0.367188C6.46563 0.367188 5.21875 1.61406 5.21875 3.14844C5.21875 4.68281 6.46563 5.92969 8 5.92969C9.53438 5.92969 10.7812 4.68281 10.7812 3.14844C10.7812 1.61406 9.53438 0.367188 8 0.367188ZM8 4.99531C6.98125 4.99531 6.15625 4.16719 6.15625 3.15156C6.15625 2.13281 6.98438 1.30781 8 1.30781C9.01562 1.30781 9.84375 2.13594 9.84375 3.15156C9.84375 4.16719 9.01875 4.99531 8 4.99531Z" fill="#636365"/>
<path d="M12.8718 2.95471C11.725 2.95471 10.7906 3.88909 10.7906 5.03596C10.7906 6.18284 11.725 7.11721 12.8718 7.11721C14.0187 7.11721 14.9531 6.18284 14.9531 5.03596C14.9531 3.88909 14.0218 2.95471 12.8718 2.95471ZM12.8718 6.18284C12.2406 6.18284 11.7281 5.67034 11.7281 5.03909C11.7281 4.40784 12.2406 3.89534 12.8718 3.89534C13.5031 3.89534 14.0156 4.40784 14.0156 5.03909C14.0156 5.67034 13.5031 6.18284 12.8718 6.18284Z" fill="#636365"/>
</g>
<defs>
<clipPath id="clip0">
<rect width="16" height="13.2656" fill="white" transform="translate(0 0.367188)"/>
</clipPath>
</defs>
</svg>
