<svg width="16" height="16" viewBox="0 0 16 16" fill="none" xmlns="http://www.w3.org/2000/svg">
<g clip-path="url(#clip0)">
<path d="M12.9094 1.23125H12.3125V0.628128C12.3125 0.284378 12.0312 0.00312805 11.6875 0.00312805C11.3438 0.00312805 11.0625 0.284378 11.0625 0.628128V1.23125H4.93437V0.628128C4.93437 0.284378 4.65312 0.00312805 4.30937 0.00312805C3.96562 0.00312805 3.68438 0.284378 3.68438 0.628128V1.23125H3.09063C1.38438 1.23125 0 2.61875 0 4.32188V12.9094C0 14.6125 1.38438 16 3.09063 16H12.9125C14.6156 16 16 14.6156 16 12.9094V4.32188C16 2.61875 14.6156 1.23125 12.9094 1.23125ZM3.09063 2.48125H3.6875V3.7C3.6875 4.04375 3.96875 4.325 4.3125 4.325C4.65625 4.325 4.9375 4.04375 4.9375 3.7V2.48125H11.0656V3.7C11.0656 4.04375 11.3469 4.325 11.6906 4.325C12.0344 4.325 12.3156 4.04375 12.3156 3.7V2.48125H12.9125C13.9281 2.48125 14.7531 3.30625 14.7531 4.32188V4.91875H1.25V4.32188C1.25 3.30625 2.075 2.48125 3.09063 2.48125ZM12.9094 14.7469H3.09063C2.075 14.7469 1.25 13.9219 1.25 12.9063V6.16563H14.75V12.9063C14.75 13.9219 13.925 14.7469 12.9094 14.7469ZM5.55 8.625C5.55 8.96875 5.26875 9.25 4.925 9.25H3.69688C3.35313 9.25 3.07188 8.96875 3.07188 8.625C3.07188 8.28125 3.35313 8 3.69688 8H4.925C5.26875 8 5.55 8.27813 5.55 8.625ZM12.9281 8.625C12.9281 8.96875 12.6469 9.25 12.3031 9.25H11.075C10.7312 9.25 10.45 8.96875 10.45 8.625C10.45 8.28125 10.7312 8 11.075 8H12.3031C12.65 8 12.9281 8.27813 12.9281 8.625ZM9.23438 8.625C9.23438 8.96875 8.95312 9.25 8.60938 9.25H7.38125C7.0375 9.25 6.75625 8.96875 6.75625 8.625C6.75625 8.28125 7.0375 8 7.38125 8H8.60938C8.95625 8 9.23438 8.27813 9.23438 8.625ZM5.55 12.3094C5.55 12.6531 5.26875 12.9344 4.925 12.9344H3.69688C3.35313 12.9344 3.07188 12.6531 3.07188 12.3094C3.07188 11.9656 3.35313 11.6844 3.69688 11.6844H4.925C5.26875 11.6844 5.55 11.9656 5.55 12.3094ZM12.9281 12.3094C12.9281 12.6531 12.6469 12.9344 12.3031 12.9344H11.075C10.7312 12.9344 10.45 12.6531 10.45 12.3094C10.45 11.9656 10.7312 11.6844 11.075 11.6844H12.3031C12.65 11.6844 12.9281 11.9656 12.9281 12.3094ZM9.23438 12.3094C9.23438 12.6531 8.95312 12.9344 8.60938 12.9344H7.38125C7.0375 12.9344 6.75625 12.6531 6.75625 12.3094C6.75625 11.9656 7.0375 11.6844 7.38125 11.6844H8.60938C8.95625 11.6844 9.23438 11.9656 9.23438 12.3094Z" fill="#636365"/>
</g>
<defs>
<clipPath id="clip0">
<rect width="16" height="15.9937" fill="white" transform="translate(0 0.00312805)"/>
</clipPath>
</defs>
</svg>
