<svg width="16" height="16" viewBox="0 0 16 16" fill="none" xmlns="http://www.w3.org/2000/svg">
<g clip-path="url(#clip0)">
<path d="M6.16563 5.33437H1.16562C0.521875 5.33437 0 4.80938 0 4.16563V1.16562C0 0.521875 0.521875 0 1.16562 0H6.16563C6.80938 0 7.33125 0.521875 7.33125 1.16562V4.16563C7.33438 4.80938 6.80938 5.33437 6.16563 5.33437ZM1.16562 1C1.075 1 1 1.075 1 1.16562V4.16563C1 4.25625 1.075 4.33125 1.16562 4.33125H6.16563C6.25625 4.33125 6.33125 4.25625 6.33125 4.16563V1.16562C6.33125 1.075 6.25625 1 6.16563 1H1.16562Z" fill="white"/>
<path d="M6.16563 16H1.16562C0.521875 16 0 15.4781 0 14.8344V7.83439C0 7.19064 0.521875 6.66876 1.16562 6.66876H6.16563C6.80938 6.66876 7.33125 7.19064 7.33125 7.83439V14.8344C7.33438 15.4781 6.80938 16 6.16563 16ZM1.16562 7.66564C1.075 7.66564 1 7.74064 1 7.83126V14.8313C1 14.9219 1.075 14.9969 1.16562 14.9969H6.16563C6.25625 14.9969 6.33125 14.9219 6.33125 14.8313V7.83126C6.33125 7.74064 6.25625 7.66564 6.16563 7.66564H1.16562Z" fill="white"/>
<path d="M14.8343 16H9.83433C9.19058 16 8.6687 15.4781 8.6687 14.8344V11.8344C8.6687 11.1906 9.19058 10.6688 9.83433 10.6688H14.8343C15.4781 10.6688 16 11.1906 16 11.8344V14.8344C16 15.4781 15.4781 16 14.8343 16ZM9.83433 11.6656C9.7437 11.6656 9.6687 11.7406 9.6687 11.8313V14.8313C9.6687 14.9219 9.7437 14.9969 9.83433 14.9969H14.8343C14.925 14.9969 15 14.9219 15 14.8313V11.8313C15 11.7406 14.925 11.6656 14.8343 11.6656H9.83433Z" fill="white"/>
<path d="M14.8343 9.33438H9.83433C9.19058 9.33438 8.6687 8.8125 8.6687 8.16875V1.16875C8.6687 0.525002 9.19058 0.00312675 9.83433 0.00312675H14.8343C15.4781 1.75415e-06 16 0.521877 16 1.16563V8.16563C16 8.80938 15.4781 9.33438 14.8343 9.33438ZM9.83433 1C9.7437 1 9.6687 1.075 9.6687 1.16563V8.16563C9.6687 8.25625 9.7437 8.33125 9.83433 8.33125H14.8343C14.925 8.33125 15 8.25625 15 8.16563V1.16563C15 1.075 14.925 1 14.8343 1H9.83433Z" fill="white"/>
</g>
<defs>
<clipPath id="clip0">
<rect width="16" height="16" fill="white"/>
</clipPath>
</defs>
</svg>
