<svg width="13" height="16" viewBox="0 0 13 16" fill="none" xmlns="http://www.w3.org/2000/svg">
<path d="M12.05 3.8875L8.3 0.1375C8.2125 0.05 8.09375 0 7.96875 0H1.40625C0.63125 0 0 0.63125 0 1.40625V14.5938C0 15.3687 0.63125 16 1.40625 16H10.7812C11.5562 16 12.1875 15.3687 12.1875 14.5938V4.21875C12.1875 4.09062 12.1344 3.97187 12.05 3.8875ZM8.4375 1.6L10.5875 3.75H8.90625C8.64687 3.75 8.4375 3.54063 8.4375 3.28125V1.6ZM10.7812 15.0625H1.40625C1.14687 15.0625 0.9375 14.8531 0.9375 14.5938V1.40625C0.9375 1.14688 1.14687 0.9375 1.40625 0.9375H7.5V3.28125C7.5 4.05625 8.13125 4.6875 8.90625 4.6875H11.25V14.5938C11.25 14.8531 11.0406 15.0625 10.7812 15.0625Z" fill="#636365"/>
<path d="M8.90625 6.625H3.28125C3.02187 6.625 2.8125 6.83437 2.8125 7.09375C2.8125 7.35312 3.02187 7.5625 3.28125 7.5625H8.90625C9.16562 7.5625 9.375 7.35312 9.375 7.09375C9.375 6.83437 9.16562 6.625 8.90625 6.625Z" fill="#636365"/>
<path d="M8.90625 8.5H3.28125C3.02187 8.5 2.8125 8.70937 2.8125 8.96875C2.8125 9.22812 3.02187 9.4375 3.28125 9.4375H8.90625C9.16562 9.4375 9.375 9.22812 9.375 8.96875C9.375 8.70937 9.16562 8.5 8.90625 8.5Z" fill="#636365"/>
<path d="M8.90625 10.375H3.28125C3.02187 10.375 2.8125 10.5844 2.8125 10.8438C2.8125 11.1031 3.02187 11.3125 3.28125 11.3125H8.90625C9.16562 11.3125 9.375 11.1031 9.375 10.8438C9.375 10.5844 9.16562 10.375 8.90625 10.375Z" fill="#636365"/>
<path d="M7.03125 12.25H3.28125C3.02187 12.25 2.8125 12.4594 2.8125 12.7187C2.8125 12.9781 3.02187 13.1875 3.28125 13.1875H7.03125C7.29062 13.1875 7.5 12.9781 7.5 12.7187C7.5 12.4594 7.29062 12.25 7.03125 12.25Z" fill="#636365"/>
</svg>
