<svg width="16" height="14" viewBox="0 0 16 14" fill="none" xmlns="http://www.w3.org/2000/svg">
<path d="M15.0388 1.94951H9.53738C9.53112 1.94951 9.52173 1.94637 9.5186 1.94011L8.95186 0.787862C8.79218 0.462226 8.45402 0.252441 8.09081 0.252441H4.76556C4.2364 0.252441 3.80431 0.684535 3.80431 1.21369V2.15616H2.86184C2.33268 2.15616 1.90059 2.58825 1.90059 3.11741V4.05988H0.961253C0.432094 4.05675 0 4.48571 0 5.018V12.7894C0 13.3186 0.432094 13.7475 0.961253 13.7475H11.2376C11.7667 13.7475 12.1988 13.3155 12.1988 12.7863V11.8438H13.1413C13.6705 11.8438 14.1026 11.4117 14.1026 10.8826V9.94011H15.045C15.5742 9.94011 16.0063 9.50802 16.0063 8.97886V2.9045C16 2.3816 15.5679 1.94951 15.0388 1.94951ZM11.2344 12.8082H0.961253C0.95186 12.8082 0.942466 12.7988 0.942466 12.7894V5.018C0.942466 5.00861 0.95186 4.99921 0.961253 4.99921H4.2865C4.28963 4.99921 4.29276 4.99921 4.29589 5.00234L4.29902 5.00547C4.30216 5.00861 4.30216 5.00861 4.30216 5.01174L4.86889 6.16399C5.03171 6.49275 5.36047 6.69941 5.72994 6.69941H11.2313C11.2344 6.69941 11.2376 6.69941 11.2376 6.69941C11.2438 6.70254 11.2501 6.7088 11.2501 6.71819C11.2501 10.0372 11.2501 12.7612 11.2501 12.7926C11.2564 12.7988 11.247 12.8082 11.2344 12.8082ZM13.157 10.8857C13.157 10.8951 13.1476 10.9045 13.1382 10.9045H12.1957V6.71506C12.1957 6.1859 11.7636 5.75381 11.2344 5.75381H5.73308C5.72681 5.75381 5.72055 5.75068 5.71742 5.74442L5.15069 4.59217C4.98787 4.2634 4.6591 4.05675 4.28963 4.05675H2.84305V3.11428C2.84305 3.10489 2.85245 3.09549 2.86184 3.09549H6.18709C6.19335 3.09549 6.19961 3.09863 6.20274 3.10489L6.76948 4.25714C6.93229 4.58591 7.26106 4.79256 7.63053 4.79256H13.1319C13.1413 4.79256 13.1507 4.80195 13.1507 4.81135V10.8857H13.157ZM15.0575 8.98512C15.0575 8.99452 15.0481 9.00391 15.0388 9.00391H14.0963V4.81135C14.0963 4.28219 13.6642 3.85009 13.135 3.85009H7.63366C7.6274 3.85009 7.62114 3.84696 7.61801 3.8407L7.05128 2.68845C6.88846 2.35655 6.55969 2.15303 6.19022 2.15303H4.74677V1.21369C4.74677 1.2043 4.75617 1.19491 4.76556 1.19491H8.09081C8.09707 1.19491 8.10333 1.19804 8.10646 1.2043L8.67319 2.35655C8.83601 2.68532 9.16478 2.89197 9.53425 2.89197H15.0356C15.045 2.89197 15.0544 2.90137 15.0544 2.91076L15.0575 8.98512Z" fill="white"/>
</svg>
