<svg width="169" height="36" viewBox="0 0 169 36" fill="none" xmlns="http://www.w3.org/2000/svg">
<g clip-path="url(#clip0)">
<path d="M44.5714 21.0118V23.7658C44.5714 27.0835 42.9354 28.9839 39.7745 28.9839C36.6136 28.9839 34.9775 27.0835 34.9775 23.7658V12.9752C34.9775 9.65756 36.6136 7.75714 39.7745 7.75714C42.9354 7.75714 44.5714 9.65756 44.5714 12.9752V14.9884H41.5376V12.7659C41.5376 11.2842 40.9022 10.7205 39.8698 10.7205C38.8532 10.7205 38.202 11.2842 38.202 12.7659V23.9752C38.202 25.4568 38.8373 25.9883 39.8698 25.9883C40.8864 25.9883 41.5376 25.4568 41.5376 23.9752V21.0118H44.5714Z" fill="#363636"/>
<path d="M46.271 12.9914C46.271 9.67368 48.0023 7.77325 51.1474 7.77325C54.3083 7.77325 56.0238 9.67368 56.0238 12.9914V23.7819C56.0238 27.0996 54.2924 29 51.1474 29C47.9865 29 46.271 27.0996 46.271 23.7819V12.9914ZM49.4796 23.9751C49.4796 25.4568 50.1149 26.0205 51.1474 26.0205C52.1798 26.0205 52.8152 25.4568 52.8152 23.9751V12.782C52.8152 11.3003 52.1798 10.7366 51.1474 10.7366C50.1149 10.7366 49.4796 11.3003 49.4796 12.782V23.9751Z" fill="#363636"/>
<path d="M64.887 22.735H64.9505L67.1107 8.01483H71.5741V28.7584H68.5402V13.8933H68.4767L66.3165 28.7584H63.2827L60.9477 14.0865H60.8842V28.7584H58.0728V8.01483H62.5361L64.887 22.735Z" fill="#363636"/>
<path d="M83.4396 13.1363V15.8259C83.4396 19.1436 81.867 20.9474 78.6426 20.9474H77.1177V28.7423H73.9092V8.01483H78.6426C81.8512 8.01483 83.4396 9.81862 83.4396 13.1363ZM77.1177 10.9782V18.0001H78.6426C79.6592 18.0001 80.2151 17.533 80.2151 16.0514V12.943C80.2151 11.4614 79.6592 10.9943 78.6426 10.9943H77.1177V10.9782Z" fill="#363636"/>
<path d="M94.9394 28.7422H91.6991L91.1432 24.9736H87.204L86.648 28.7422H83.6936L86.9657 7.99866H91.6673L94.9394 28.7422ZM87.6169 22.1713H90.7143L89.1894 11.6868H89.1259L87.6169 22.1713Z" fill="#363636"/>
<path d="M99.3553 13.7322H99.2918V28.7584H96.4009V8.01483H100.435L103.676 20.432H103.739V8.01483H106.598V28.7584H103.295L99.3553 13.7322Z" fill="#363636"/>
<path d="M111.919 21.8815L107.853 8.01483H111.22L113.651 17.4686H113.714L116.129 8.01483H119.194L115.144 21.8815V28.7584H111.935V21.8815H111.919Z" fill="#363636"/>
<path fill-rule="evenodd" clip-rule="evenodd" d="M28.0153 27.383V10.9879L12.6421 1.98789L15.3733 0.382996L30.7465 9.38299V27.383L26.4842 29.8795L5.47273 17.5858V14.1872L28.0153 27.383ZM20.846 33.1837L5.47273 24.1837V20.7851L23.7427 31.4844L20.846 33.1837ZM7.00383 5.2816L25.2737 15.9809V12.5928L9.90053 3.5823L7.00383 5.2816ZM2.74152 9.38298V25.7781L18.1147 34.7781L15.3732 36.383L0 27.383V9.38298L4.26229 6.88647L25.2737 19.1802V22.5788L2.74152 9.38298Z" fill="url(#paint0_linear)"/>
</g>
<defs>
<linearGradient id="paint0_linear" x1="22.6122" y1="33.1263" x2="-4.94038" y2="6.68181" gradientUnits="userSpaceOnUse">
<stop stop-color="#0046FD"/>
<stop offset="1"/>
</linearGradient>
<clipPath id="clip0">
<rect width="169" height="36" fill="white"/>
</clipPath>
</defs>
</svg>
