<svg width="16" height="16" viewBox="0 0 16 16" fill="none" xmlns="http://www.w3.org/2000/svg">
<path d="M12.9094 1.23124H12.3125V0.628113C12.3125 0.284363 12.0312 0.00311279 11.6875 0.00311279C11.3438 0.00311279 11.0625 0.284363 11.0625 0.628113V1.23124H4.93437V0.628113C4.93437 0.284363 4.65312 0.00311279 4.30937 0.00311279C3.96562 0.00311279 3.68438 0.284363 3.68438 0.628113V1.23124H3.09063C1.38438 1.23124 0 2.61874 0 4.32186V12.9094C0 14.6125 1.38438 16 3.09063 16H12.9125C14.6156 16 16 14.6156 16 12.9094V4.32186C16 2.61874 14.6156 1.23124 12.9094 1.23124ZM3.09063 2.48124H3.6875V3.69999C3.6875 4.04374 3.96875 4.32499 4.3125 4.32499C4.65625 4.32499 4.9375 4.04374 4.9375 3.69999V2.48124H11.0656V3.69999C11.0656 4.04374 11.3469 4.32499 11.6906 4.32499C12.0344 4.32499 12.3156 4.04374 12.3156 3.69999V2.48124H12.9125C13.9281 2.48124 14.7531 3.30624 14.7531 4.32186V4.91874H1.25V4.32186C1.25 3.30624 2.075 2.48124 3.09063 2.48124ZM12.9094 14.7469H3.09063C2.075 14.7469 1.25 13.9219 1.25 12.9062V6.16561H14.75V12.9062C14.75 13.9219 13.925 14.7469 12.9094 14.7469ZM5.55 8.62499C5.55 8.96874 5.26875 9.24999 4.925 9.24999H3.69688C3.35313 9.24999 3.07188 8.96874 3.07188 8.62499C3.07188 8.28124 3.35313 7.99999 3.69688 7.99999H4.925C5.26875 7.99999 5.55 8.27811 5.55 8.62499ZM12.9281 8.62499C12.9281 8.96874 12.6469 9.24999 12.3031 9.24999H11.075C10.7312 9.24999 10.45 8.96874 10.45 8.62499C10.45 8.28124 10.7312 7.99999 11.075 7.99999H12.3031C12.65 7.99999 12.9281 8.27811 12.9281 8.62499ZM9.23438 8.62499C9.23438 8.96874 8.95312 9.24999 8.60938 9.24999H7.38125C7.0375 9.24999 6.75625 8.96874 6.75625 8.62499C6.75625 8.28124 7.0375 7.99999 7.38125 7.99999H8.60938C8.95625 7.99999 9.23438 8.27811 9.23438 8.62499ZM5.55 12.3094C5.55 12.6531 5.26875 12.9344 4.925 12.9344H3.69688C3.35313 12.9344 3.07188 12.6531 3.07188 12.3094C3.07188 11.9656 3.35313 11.6844 3.69688 11.6844H4.925C5.26875 11.6844 5.55 11.9656 5.55 12.3094ZM12.9281 12.3094C12.9281 12.6531 12.6469 12.9344 12.3031 12.9344H11.075C10.7312 12.9344 10.45 12.6531 10.45 12.3094C10.45 11.9656 10.7312 11.6844 11.075 11.6844H12.3031C12.65 11.6844 12.9281 11.9656 12.9281 12.3094ZM9.23438 12.3094C9.23438 12.6531 8.95312 12.9344 8.60938 12.9344H7.38125C7.0375 12.9344 6.75625 12.6531 6.75625 12.3094C6.75625 11.9656 7.0375 11.6844 7.38125 11.6844H8.60938C8.95625 11.6844 9.23438 11.9656 9.23438 12.3094Z" fill="#363636"/>
</svg>
