<svg width="187" height="49" viewBox="0 0 187 49" fill="none" xmlns="http://www.w3.org/2000/svg">
<g clip-path="url(#clip0)">
<path d="M78.8296 20.1265V24.0627C78.8296 28.8045 76.469 31.5207 71.9083 31.5207C67.3475 31.5207 64.9869 28.8045 64.9869 24.0627V8.64017C64.9869 3.89833 67.3475 1.18213 71.9083 1.18213C76.469 1.18213 78.8296 3.89833 78.8296 8.64017V11.5175H74.4522V8.34093C74.4522 6.22322 73.5355 5.41756 72.0458 5.41756C70.579 5.41756 69.6394 6.22322 69.6394 8.34093V24.3619C69.6394 26.4796 70.5561 27.2393 72.0458 27.2393C73.5126 27.2393 74.4522 26.4796 74.4522 24.3619V20.1265H78.8296Z" fill="black"/>
<path d="M81.282 8.66321C81.282 3.92137 83.7801 1.20517 88.3179 1.20517C92.8787 1.20517 95.3538 3.92137 95.3538 8.66321V24.0857C95.3538 28.8275 92.8557 31.5437 88.3179 31.5437C83.7572 31.5437 81.282 28.8275 81.282 24.0857V8.66321ZM85.9115 24.3619C85.9115 26.4796 86.8282 27.2853 88.3179 27.2853C89.8076 27.2853 90.7243 26.4796 90.7243 24.3619V8.36397C90.7243 6.24625 89.8076 5.4406 88.3179 5.4406C86.8282 5.4406 85.9115 6.24625 85.9115 8.36397V24.3619Z" fill="black"/>
<path d="M108.142 22.5895H108.234L111.351 1.55048H117.791V31.1985H113.413V9.95228H113.322L110.205 31.1985H105.827L102.458 10.2285H102.367V31.1985H98.3102V1.55048H104.75L108.142 22.5895Z" fill="black"/>
<path d="M134.911 8.87041V12.7145C134.911 17.4564 132.642 20.0344 127.989 20.0344H125.789V31.1755H121.16V1.55048H127.989C132.619 1.55048 134.911 4.12856 134.911 8.87041ZM125.789 5.78591V15.822H127.989C129.456 15.822 130.258 15.1545 130.258 13.0368V8.59418C130.258 6.47647 129.456 5.80893 127.989 5.80893H125.789V5.78591Z" fill="black"/>
<path d="M151.504 31.1754H146.828L146.026 25.7891H140.343L139.54 31.1754H135.278L139.999 1.5274H146.783L151.504 31.1754ZM140.938 21.7838H145.407L143.207 6.79868H143.116L140.938 21.7838Z" fill="black"/>
<path d="M157.875 9.7221H157.783V31.1985H153.612V1.55048H159.433L164.109 19.2979H164.2V1.55048H168.326V31.1985H163.559L157.875 9.7221Z" fill="black"/>
<path d="M176.003 21.3695L170.136 1.55048H174.995L178.501 15.0624H178.593L182.077 1.55048H186.5L180.656 21.3695V31.1985H176.026V21.3695H176.003Z" fill="black"/>
<path d="M70.5332 40.8202C71.5416 40.8202 72.0687 41.4187 72.0687 42.4775V42.6847H71.0833V42.4085C71.0833 41.9251 70.8999 41.764 70.5561 41.764C70.2353 41.764 70.029 41.9481 70.029 42.4085C70.029 42.8919 70.2353 43.2602 70.9228 43.8356C71.7937 44.5953 72.0687 45.1477 72.0687 45.9073C72.0687 46.9662 71.5416 47.5647 70.5332 47.5647C69.5248 47.5647 68.9977 46.9662 68.9977 45.9073V45.493H69.9832V45.9764C69.9832 46.4598 70.1894 46.6209 70.5103 46.6209C70.8312 46.6209 71.0374 46.4598 71.0374 45.9764C71.0374 45.493 70.8312 45.1247 70.1436 44.5492C69.2727 43.7896 68.9977 43.2371 68.9977 42.4775C69.0206 41.4187 69.5248 40.8202 70.5332 40.8202Z" fill="#0046FD"/>
<path d="M77.042 40.8892H78.0733V46.5748H79.7692V47.5186H77.019V40.8892H77.042Z" fill="#0046FD"/>
<path d="M84.5364 42.4775C84.5364 41.4187 85.0864 40.8202 86.1177 40.8202C87.1261 40.8202 87.6991 41.4187 87.6991 42.4775V45.9303C87.6991 46.9892 87.149 47.5877 86.1177 47.5877C85.1093 47.5877 84.5364 46.9892 84.5364 45.9303V42.4775ZM85.5677 45.9764C85.5677 46.4598 85.774 46.6209 86.0948 46.6209C86.4157 46.6209 86.6219 46.4367 86.6219 45.9764V42.4085C86.6219 41.9251 86.4157 41.764 86.0948 41.764C85.774 41.764 85.5677 41.9481 85.5677 42.4085V45.9764Z" fill="#0046FD"/>
<path d="M94.2766 43.8126H95.7205V45.9073C95.7205 46.9661 95.1934 47.5646 94.1849 47.5646C93.1765 47.5646 92.6494 46.9661 92.6494 45.9073V42.4545C92.6494 41.3956 93.1765 40.7971 94.1849 40.7971C95.1934 40.7971 95.7205 41.3956 95.7205 42.4545V43.099H94.7579V42.3854C94.7579 41.902 94.5516 41.7409 94.2308 41.7409C93.9099 41.7409 93.7037 41.9251 93.7037 42.3854V45.9533C93.7037 46.4367 93.9099 46.5978 94.2308 46.5978C94.5516 46.5978 94.7579 46.4367 94.7579 45.9533V44.7333H94.2766V43.8126Z" fill="#0046FD"/>
<path d="M104.132 47.5186H103.077L102.894 46.3216H101.633L101.45 47.5186H100.487L101.542 40.8892H103.054L104.132 47.5186ZM101.771 45.4009H102.779L102.298 42.0632H102.275L101.771 45.4009Z" fill="#0046FD"/>
<path d="M109.93 42.7077L109.907 47.4956H108.967V40.8662H110.274L111.328 44.8255H111.351V40.8662H112.268V47.4956H111.213L109.93 42.7077Z" fill="#0046FD"/>
<path d="M120.404 43.8126H121.847V45.9073C121.847 46.9661 121.32 47.5646 120.312 47.5646C119.303 47.5646 118.776 46.9661 118.776 45.9073V42.4545C118.776 41.3956 119.303 40.7971 120.312 40.7971C121.32 40.7971 121.847 41.3956 121.847 42.4545V43.099H120.885V42.3854C120.885 41.902 120.679 41.7409 120.358 41.7409C120.037 41.7409 119.831 41.9251 119.831 42.3854V45.9533C119.831 46.4367 120.037 46.5978 120.358 46.5978C120.679 46.5978 120.885 46.4367 120.885 45.9533V44.7333H120.404V43.8126Z" fill="#0046FD"/>
<path d="M126.821 42.4775C126.821 41.4187 127.371 40.8202 128.402 40.8202C129.41 40.8202 129.983 41.4187 129.983 42.4775V45.9303C129.983 46.9892 129.433 47.5877 128.402 47.5877C127.394 47.5877 126.821 46.9892 126.821 45.9303V42.4775ZM127.852 45.9764C127.852 46.4598 128.058 46.6209 128.379 46.6209C128.7 46.6209 128.906 46.4367 128.906 45.9764V42.4085C128.906 41.9251 128.7 41.764 128.379 41.764C128.058 41.764 127.852 41.9481 127.852 42.4085V45.9764Z" fill="#0046FD"/>
<path d="M136.057 43.6745H137.478V44.6183H136.057V46.5519H137.844V47.4956H135.026V40.8662H137.844V41.81H136.057V43.6745Z" fill="#0046FD"/>
<path d="M144.262 40.8202C145.27 40.8202 145.797 41.4187 145.797 42.4775V42.6847H144.812V42.4085C144.812 41.9251 144.628 41.764 144.285 41.764C143.941 41.764 143.757 41.9481 143.757 42.4085C143.757 42.8919 143.964 43.2602 144.651 43.8356C145.522 44.5953 145.797 45.1477 145.797 45.9073C145.797 46.9662 145.27 47.5647 144.262 47.5647C143.253 47.5647 142.726 46.9662 142.726 45.9073V45.493H143.712V45.9764C143.712 46.4598 143.918 46.6209 144.239 46.6209C144.56 46.6209 144.766 46.4598 144.766 45.9764C144.766 45.493 144.56 45.1247 143.872 44.5492C143.001 43.7896 142.726 43.2371 142.726 42.4775C142.726 41.4187 143.253 40.8202 144.262 40.8202Z" fill="#0046FD"/>
<path d="M153.269 47.5186H152.237V40.8892H153.269V43.7205H154.437V40.8892H155.492V47.5186H154.437V44.6873H153.269V47.5186Z" fill="#0046FD"/>
<path d="M161.657 43.6745H163.077V44.6183H161.657V46.5519H163.444V47.4956H160.625V40.8662H163.444V41.81H161.657V43.6745Z" fill="#0046FD"/>
<path d="M170.641 47.5186C170.595 47.3575 170.549 47.2424 170.549 46.713V45.6771C170.549 45.0556 170.343 44.8254 169.861 44.8254H169.495V47.5186H168.463V40.8892H170.022C171.099 40.8892 171.557 41.3956 171.557 42.4085V42.9379C171.557 43.6285 171.351 44.0428 170.87 44.273V44.296C171.397 44.5032 171.557 45.0096 171.557 45.7001V46.713C171.557 47.0352 171.557 47.2654 171.672 47.5186H170.641ZM169.518 41.833V43.8586H169.93C170.32 43.8586 170.549 43.6975 170.549 43.1681V42.5235C170.549 42.0402 170.388 41.833 170.022 41.833H169.518Z" fill="#0046FD"/>
<path d="M177.677 43.6745H179.098V44.6183H177.677V46.5519H179.464V47.4956H176.645V40.8662H179.464V41.81H177.677V43.6745Z" fill="#0046FD"/>
<path fill-rule="evenodd" clip-rule="evenodd" d="M38.7792 36.6454V14.5204L17.8358 2.37504L21.5566 0.209259L42.4999 12.3546V36.6454L36.6933 40.0144L8.06887 23.4242V18.8378L38.7792 36.6454ZM29.0122 44.4733L8.06887 32.328V27.7416L32.9585 42.1802L29.0122 44.4733ZM10.1547 6.81985L35.0443 21.2584V16.6862L14.101 4.52667L10.1547 6.81985ZM4.34813 12.3546V34.4796L25.2915 46.625L21.5566 48.7907L0.613281 36.6454V12.3546L6.41992 8.98563L35.0444 25.5758V30.1622L4.34813 12.3546Z" fill="url(#paint0_linear)"/>
</g>
<defs>
<linearGradient id="paint0_linear" x1="31.4184" y1="44.3959" x2="-5.77618" y2="8.35755" gradientUnits="userSpaceOnUse">
<stop stop-color="#0046FD"/>
<stop offset="1"/>
</linearGradient>
<clipPath id="clip0">
<rect width="186" height="49" fill="white" transform="translate(0.5)"/>
</clipPath>
</defs>
</svg>
