<svg width="27" height="38" viewBox="0 0 27 38" fill="none" xmlns="http://www.w3.org/2000/svg">
<g clip-path="url(#clip0)">
<path d="M18.3668 28.8238C18.3668 30.8305 16.7135 32.4546 14.6706 32.4546C12.6277 32.4546 10.9744 30.8305 10.9744 28.8238H18.3668Z" fill="#0046FD"/>
<path d="M6.97518 16.4264V19.8021C6.97518 22.4551 5.78062 24.9805 3.72044 26.6896L3.71178 26.6981C3.4521 26.9192 3.27897 27.2423 3.27897 27.6164C3.27897 28.2796 3.83297 28.8238 4.50816 28.8238H14.3676H24.833C25.5081 28.8238 26.0621 28.2796 26.0621 27.6164C26.0621 27.2423 25.889 26.9192 25.6293 26.6981L25.6207 26.6896C23.5518 24.972 22.3659 22.4551 22.3659 19.8021V16.4264C22.3659 12.2515 18.9208 8.86725 14.6706 8.86725C10.4204 8.86725 6.97518 12.2515 6.97518 16.4264Z" fill="#F3F3F1"/>
<path d="M23.2921 27.6079C23.2921 27.2338 23.119 26.9107 22.8593 26.6896L22.8507 26.6811C20.7818 24.9635 19.5959 22.4466 19.5959 19.7936V16.4264C19.5959 12.7191 16.8779 9.64102 13.2856 8.99479C13.7357 8.91827 14.1945 8.86725 14.6706 8.86725C18.9208 8.86725 22.3659 12.2515 22.3659 16.4264V19.8021C22.3659 22.4551 23.5605 24.9805 25.6207 26.6896L25.6293 26.6981C25.889 26.9192 26.0621 27.2423 26.0621 27.6164C26.0621 28.2796 25.5081 28.8238 24.833 28.8238H22.063C22.7381 28.8238 23.2921 28.2796 23.2921 27.6079Z" fill="#D5DBE1"/>
<path d="M6.05766 15.5166C3.17012 15.5166 0.829308 13.2172 0.829308 10.3808C0.829308 7.54432 3.17012 5.24493 6.05766 5.24493C8.9452 5.24493 11.286 7.54432 11.286 10.3808C11.286 13.2172 8.9452 15.5166 6.05766 15.5166Z" fill="white"/>
<path d="M8.51602 10.3808C8.51602 8.01692 6.88 6.04422 4.67266 5.44901C5.11413 5.32996 5.57291 5.24493 6.05766 5.24493C8.94883 5.24493 11.286 7.54925 11.286 10.3808C11.286 13.2123 8.94018 15.5166 6.05766 15.5166C5.57291 15.5166 5.11413 15.4316 4.67266 15.3125C6.88 14.7173 8.51602 12.7446 8.51602 10.3808Z" fill="#D5DBE1"/>
<path d="M14.6707 33.3559C17.2156 33.3559 19.2844 31.3237 19.2844 28.8238H17.4407C17.4407 30.3203 16.1942 31.5448 14.6707 31.5448C13.1472 31.5448 11.9007 30.3203 11.9007 28.8238H10.0569C10.0569 31.3237 12.1257 33.3559 14.6707 33.3559Z" fill="black"/>
<path d="M4.51687 29.7251H24.833C26.0189 29.7251 26.9884 28.7728 26.9884 27.6079C26.9884 26.9872 26.7114 26.4005 26.2353 26.0008C26.2093 25.9753 26.1747 25.9498 26.1401 25.9328C24.3309 24.3852 23.2922 22.1574 23.2922 19.8021V16.4264C23.2922 11.7582 19.4229 7.9574 14.6706 7.9574C14.4715 7.9574 14.2638 7.9574 14.0647 7.99141L14.3676 9.77704C14.4629 9.76004 14.5754 9.76004 14.6706 9.76854C18.4014 9.76854 21.4398 12.7531 21.4398 16.4179V19.7936C21.4398 22.7186 22.7469 25.4821 25.0148 27.3783C25.0321 27.3953 25.0494 27.4038 25.0667 27.4208C25.1013 27.4633 25.136 27.5229 25.136 27.6079C25.136 27.7694 24.9975 27.914 24.8243 27.914H4.50821C4.34374 27.914 4.19659 27.7779 4.19659 27.6079C4.19659 27.5229 4.23121 27.4633 4.26584 27.4208C4.28315 27.4123 4.30046 27.3953 4.31777 27.3783C6.59436 25.4821 7.89279 22.7186 7.89279 19.7936V18.4756H6.05767V19.7936C6.05767 22.1489 5.01893 24.3767 3.20978 25.9328C3.17515 25.9498 3.14919 25.9753 3.12321 26.0008C2.64712 26.4005 2.37012 26.9872 2.37012 27.6079C2.36147 28.7813 3.33097 29.7251 4.51687 29.7251Z" fill="black"/>
<path d="M6.05771 16.4264C9.45095 16.4264 12.2123 13.714 12.2123 10.3808C12.2123 7.04761 9.45095 4.33514 6.05771 4.33514C2.66448 4.33514 -0.0968542 7.04761 -0.0968542 10.3808C-0.0968542 13.714 2.66448 16.4264 6.05771 16.4264ZM6.05771 6.14629C8.42952 6.14629 10.3685 8.04246 10.3685 10.3808C10.3685 12.7191 8.43817 14.6153 6.05771 14.6153C3.67725 14.6153 1.74692 12.7191 1.74692 10.3808C1.74692 8.04246 3.67725 6.14629 6.05771 6.14629Z" fill="black"/>
</g>
<defs>
<clipPath id="clip0">
<rect width="27" height="38" fill="white" transform="matrix(-1 0 0 1 27 0)"/>
</clipPath>
</defs>
</svg>
