<svg width="21" height="17" viewBox="0 0 21 17" fill="none" xmlns="http://www.w3.org/2000/svg">
<path d="M18.7984 2.18689H11.9217C11.9139 2.18689 11.9022 2.18298 11.8982 2.17515L11.1898 0.734835C10.9902 0.32779 10.5675 0.0655594 10.1135 0.0655594H5.95695C5.2955 0.0655594 4.75538 0.605677 4.75538 1.26713V2.44521H3.5773C2.91585 2.44521 2.37574 2.98532 2.37574 3.64677V4.82485H1.20157C0.540118 4.82094 0 5.35714 0 6.02251V15.7368C0 16.3982 0.540118 16.9344 1.20157 16.9344H14.047C14.7084 16.9344 15.2485 16.3943 15.2485 15.7329V14.5548H16.4266C17.0881 14.5548 17.6282 14.0147 17.6282 13.3532V12.1751H18.8063C19.4677 12.1751 20.0078 11.635 20.0078 10.9736V3.38063C20 2.72701 19.4599 2.18689 18.7984 2.18689ZM14.0431 15.7603H1.20157C1.18982 15.7603 1.17808 15.7485 1.17808 15.7368V6.02251C1.17808 6.01076 1.18982 5.99902 1.20157 5.99902H5.35812C5.36204 5.99902 5.36595 5.99902 5.36987 6.00294L5.37378 6.00685C5.37769 6.01077 5.37769 6.01076 5.37769 6.01468L6.08611 7.45499C6.28963 7.86595 6.70059 8.12427 7.16243 8.12427H14.0391C14.0431 8.12427 14.047 8.12427 14.047 8.12427C14.0548 8.12818 14.0626 8.13601 14.0626 8.14775C14.0626 12.2965 14.0626 15.7016 14.0626 15.7407C14.0705 15.7485 14.0587 15.7603 14.0431 15.7603ZM16.4462 13.3571C16.4462 13.3689 16.4345 13.3806 16.4227 13.3806H15.2446V8.14384C15.2446 7.48239 14.7045 6.94227 14.0431 6.94227H7.16634C7.15852 6.94227 7.15069 6.93836 7.14678 6.93053L6.43836 5.49022C6.23484 5.07926 5.82388 4.82094 5.36204 4.82094H3.55382V3.64286C3.55382 3.63112 3.56556 3.61938 3.5773 3.61938H7.73386C7.74169 3.61938 7.74952 3.62329 7.75343 3.63112L8.46184 5.07143C8.66537 5.48239 9.07633 5.74071 9.53817 5.74071H16.4149C16.4266 5.74071 16.4384 5.75245 16.4384 5.76419V13.3571H16.4462ZM18.8219 10.9814C18.8219 10.9932 18.8102 11.0049 18.7984 11.0049H17.6204V5.76419C17.6204 5.10274 17.0802 4.56262 16.4188 4.56262H9.54208C9.53425 4.56262 9.52642 4.55871 9.52251 4.55088L8.81409 3.11057C8.61057 2.6957 8.19961 2.44129 7.73777 2.44129H5.93347V1.26713C5.93347 1.25538 5.94521 1.24364 5.95695 1.24364H10.1135C10.1213 1.24364 10.1292 1.24756 10.1331 1.25538L10.8415 2.6957C11.045 3.10666 11.456 3.36497 11.9178 3.36497H18.7945C18.8063 3.36497 18.818 3.37671 18.818 3.38846L18.8219 10.9814Z" fill="#363636"/>
</svg>
