<svg width="16" height="16" viewBox="0 0 16 16" fill="none" xmlns="http://www.w3.org/2000/svg">
<path d="M1.79062 7.11533C1.54688 6.87158 1.54688 6.47471 1.79062 6.23096L5.45 2.57158C5.69375 2.32783 6.09062 2.32783 6.33437 2.57158L8.63437 4.87158L12.2594 1.24658H10.6531C10.3094 1.24658 10.0281 0.965332 10.0281 0.621582C10.0281 0.277832 10.3094 -0.00341797 10.6531 -0.00341797H13.7656C14.1156 -0.00341797 14.3906 0.284082 14.3906 0.621582V3.73721C14.3906 4.08096 14.1094 4.36221 13.7656 4.36221C13.4219 4.36221 13.1406 4.08096 13.1406 3.73721V2.13408L9.07812 6.19971C8.83438 6.44346 8.4375 6.44346 8.19375 6.19971L5.89375 3.89971L2.675 7.11846C2.43125 7.35908 2.03437 7.35908 1.79062 7.11533ZM4.46562 11.6872V15.3747C4.46562 15.7185 4.18437 15.9997 3.84063 15.9997H0.625C0.28125 15.9997 0 15.7185 0 15.3747V11.6872C0 11.3435 0.28125 11.0622 0.625 11.0622H3.84063C4.18437 11.0622 4.46562 11.3435 4.46562 11.6872ZM3.21563 12.3122H1.25V14.7497H3.21563V12.3122ZM10.2312 9.30908V15.3747C10.2312 15.7185 9.95 15.9997 9.60625 15.9997H6.39375C6.05 15.9997 5.76875 15.7185 5.76875 15.3747V9.30908C5.76875 8.96533 6.05 8.68408 6.39375 8.68408H9.60938C9.95312 8.68408 10.2312 8.96533 10.2312 9.30908ZM8.98125 9.93408H7.01562V14.7497H8.98125V9.93408ZM16 6.93408V15.3747C16 15.7185 15.7188 15.9997 15.375 15.9997H12.1594C11.8156 15.9997 11.5344 15.7185 11.5344 15.3747V6.93408C11.5344 6.59033 11.8156 6.30908 12.1594 6.30908H15.375C15.7188 6.30908 16 6.58721 16 6.93408ZM14.75 7.55908H12.7844V14.7497H14.75V7.55908Z" fill="#363636"/>
</svg>
